<?xml version="1.0" encoding="utf-8"?>
<svg version="1.1" id="Layer_1" xmlns="http://www.w3.org/2000/svg" xmlns:xlink="http://www.w3.org/1999/xlink" x="0px" y="0px"
	 viewBox="0 0 596 596" style="enable-background:new 0 0 596 596;" xml:space="preserve">
<style type="text/css">
	.st0{fill:#EFF4EF;}
	.st1{fill:#5ACC5A;}
</style>
<rect x="29" y="40" class="st0" width="540" height="499"/>
<path class="st1" d="M0,36.5v523C0,579.7,16.3,596,36.5,596h523c20.2,0,36.5-16.3,36.5-36.5v-523C596,16.3,579.7,0,559.5,0h-523
	C16.3,0,0,16.3,0,36.5z M545.7,268.2l-176,152c-15.4,13.3-39.7,2.5-39.7-18.2v-50c0-21.1-17.9-37.8-38.9-36.4
	c-127.1,8.4-179,52-137.7,184.3c5,16.1-14.4,28.6-28.1,18.6C81.6,486.6,42,425.8,42,364.3c0-141,109.3-179,253.1-185.3
	c19.5-0.9,34.9-16.9,34.9-36.5V98c0-20.7,24.3-31.5,39.7-18.2l176,152C556.8,241.4,556.8,258.6,545.7,268.2z"/>
</svg>
