<svg width="257" height="25" viewBox="0 0 257 25" fill="none" xmlns="http://www.w3.org/2000/svg">
<path d="M20.3182 25V23.5368H17.4194V19.1203H15.9655V14.7127H14.5117V10.2962H13.0579V5.88869H11.604V0H10.1591V1.47217H8.70525V5.88869H10.1591V10.2962H11.604V14.7127H13.0579V16.1759H5.79759V14.7127H4.34376V19.1203H5.79759V17.6481H13.0579V19.1203H14.5117V23.5368H11.604V25H20.3182ZM8.70525 10.2962V5.88869H7.25142V10.2962H8.70525ZM7.25142 14.7127V10.2962H5.79759V14.7127H7.25142ZM7.25142 25V23.5368H4.34376V19.1203H2.88993V23.5368H0V25H7.25142Z" fill="black"/>
<path d="M39.9271 25V22.0646H41.3721V19.1203H39.9271V20.5925H38.4733V22.0646H37.0195V23.5368H28.3054V2.94434H31.213V1.47217H22.4989V2.94434H25.3977V23.5368H22.4989V25H39.9271Z" fill="black"/>
<path d="M52.2758 25V23.5368H49.3682V2.94434H56.6285V4.41652H58.0823V11.7684H56.6285V13.2406H50.822V14.7127H58.0823V13.2406H59.5361V11.7684H60.99V4.41652H59.5361V2.94434H58.0823V1.47217H43.5617V2.94434H46.4605V23.5368H43.5617V25H52.2758Z" fill="black"/>
<path d="M80.5989 25V23.5368H77.7001V19.1203H76.2463V14.7127H74.7925V10.2962H73.3387V5.88869H71.8848V0H70.4399V1.47217H68.986V5.88869H70.4399V10.2962H71.8848V14.7127H73.3387V16.1759H66.0784V14.7127H64.6245V19.1203H66.0784V17.6481H73.3387V19.1203H74.7925V23.5368H71.8848V25H80.5989ZM68.986 10.2962V5.88869H67.5322V10.2962H68.986ZM67.5322 14.7127V10.2962H66.0784V14.7127H67.5322ZM67.5322 25V23.5368H64.6245V19.1203H63.1707V23.5368H60.2808V25H67.5322Z" fill="black"/>
<path d="M101.635 7.35189V4.41652H100.181V1.47217H88.5684V2.94434H97.2825V4.41652H98.7364V5.88869H100.181V7.35189H101.635ZM88.5684 23.5368V22.0646H87.1146V20.5925H85.6608V17.6481H84.2069V8.82406H85.6608V5.88869H87.1146V4.41652H88.5684V2.94434H85.6608V4.41652H84.2069V5.88869H82.7531V8.82406H81.3081V17.6481H82.7531V20.5925H84.2069V22.0646H85.6608V23.5368H88.5684ZM100.181 25V22.0646H101.635V19.1203H100.181V20.5925H98.7364V22.0646H97.2825V23.5368H88.5684V25H100.181Z" fill="black"/>
<path d="M124.143 25V23.5368H121.244V19.1203H119.79V14.7127H118.336V10.2962H116.883V5.88869H115.429V0H113.984V1.47217H112.53V5.88869H113.984V10.2962H115.429V14.7127H116.883V16.1759H109.622V14.7127H108.169V19.1203H109.622V17.6481H116.883V19.1203H118.336V23.5368H115.429V25H124.143ZM112.53 10.2962V5.88869H111.076V10.2962H112.53ZM111.076 14.7127V10.2962H109.622V14.7127H111.076ZM111.076 25V23.5368H108.169V19.1203H106.715V23.5368H103.825V25H111.076Z" fill="black"/>
<path d="M140.844 25V23.5368H132.13V2.94434H140.844V1.47217H126.324V2.94434H129.222V23.5368H126.324V25H140.844ZM143.752 23.5368V22.0646H145.197V20.5925H146.651V17.6481H148.105V8.82406H146.651V5.88869H145.197V4.41652H143.752V2.94434H140.844V4.41652H142.298V5.88869H143.752V8.82406H145.197V17.6481H143.752V20.5925H142.298V22.0646H140.844V23.5368H143.752Z" fill="black"/>
<path d="M169.141 25V23.5368H166.242V19.1203H164.788V14.7127H163.334V10.2962H161.88V5.88869H160.427V0H158.982V1.47217H157.528V5.88869H158.982V10.2962H160.427V14.7127H161.88V16.1759H154.62V14.7127H153.166V19.1203H154.62V17.6481H161.88V19.1203H163.334V23.5368H160.427V25H169.141ZM157.528 10.2962V5.88869H156.074V10.2962H157.528ZM156.074 14.7127V10.2962H154.62V14.7127H156.074ZM156.074 25V23.5368H153.166V19.1203H151.713V23.5368H148.823V25H156.074Z" fill="black"/>
<path d="M185.842 25V23.5368H187.296V22.0646H188.75V14.7127H187.296V13.2406H185.842V10.2962H187.296V4.41652H185.842V2.94434H184.388V1.47217H171.322V2.94434H174.22V23.5368H171.322V25H185.842ZM177.128 11.7684V2.94434H182.934V4.41652H184.388V10.2962H182.934V11.7684H177.128ZM177.128 23.5368V13.2406H184.388V14.7127H185.842V22.0646H184.388V23.5368H177.128Z" fill="black"/>
<path d="M199.645 25V23.5368H196.737V14.7127H198.191V16.1759H199.645V17.6481H201.09V19.1203H202.543V20.5925H203.997V22.0646H205.451V23.5368H206.905V25H212.711V23.5368H209.804V22.0646H208.359V20.5925H206.905V19.1203H205.451V17.6481H203.997V16.1759H202.543V14.7127H205.451V13.2406H206.905V11.7684H208.359V4.41652H206.905V2.94434H205.451V1.47217H190.93V2.94434H193.829V23.5368H190.93V25H199.645ZM196.737 13.2406V2.94434H203.997V4.41652H205.451V11.7684H203.997V13.2406H196.737Z" fill="black"/>
<path d="M234.492 25V23.5368H231.593V19.1203H230.14V14.7127H228.686V10.2962H227.232V5.88869H225.778V0H224.333V1.47217H222.879V5.88869H224.333V10.2962H225.778V14.7127H227.232V16.1759H219.972V14.7127H218.518V19.1203H219.972V17.6481H227.232V19.1203H228.686V23.5368H225.778V25H234.492ZM222.879 10.2962V5.88869H221.425V10.2962H222.879ZM221.425 14.7127V10.2962H219.972V14.7127H221.425ZM221.425 25V23.5368H218.518V19.1203H217.064V23.5368H214.174V25H221.425Z" fill="black"/>
<path d="M255.546 25V22.0646H257V19.1203H255.546V20.5925H254.101V22.0646H252.647V23.5368H239.572V20.5925H241.026V19.1203H242.479V17.6481H243.933V16.1759H245.387V14.7127H246.832V13.2406H248.286V11.7684H249.74V10.2962H251.194V8.82406H252.647V7.35189H254.101V5.88869H255.546V1.47217H239.572V0H238.118V4.41652H236.673V7.35189H238.118V5.88869H239.572V4.41652H241.026V2.94434H252.647V5.1526H251.194V6.6158H249.74V8.08797H248.286V9.56014H246.832V11.0323H245.387V12.5045H243.933V13.9767H242.479V15.4488H241.026V16.912H239.572V18.3842H238.118V19.8564H236.673V25H255.546Z" fill="black"/>
</svg>
