<?xml version="1.0" encoding="utf-8"?>
<!-- Generator: Adobe Illustrator 23.0.2, SVG Export Plug-In . SVG Version: 6.00 Build 0)  -->
<svg version="1.1" id="Layer_1" xmlns="http://www.w3.org/2000/svg" xmlns:xlink="http://www.w3.org/1999/xlink" x="0px" y="0px"
	 viewBox="0 0 1035 111" style="enable-background:new 0 0 1035 111;" xml:space="preserve">
<style type="text/css">
	.st0{fill:#FEC062;}
</style>
<g>
	<path class="st0" d="M28.2,70.8V99H0V14.5h14.1V0.4h42.2v14.1h14.1V99H42.2V70.8H28.2z M28.2,14.5v42.2h14.1V14.5H28.2z M87.9,0.4
		H116v84.5h28.2V99H87.9V0.4z M203.9,56.8V14.5h-14.1v42.2H203.9z M218,0.4v14.1h14.1v42.2H218v14.1h-28.2V99h-28.2V0.4H218z
		 M277.7,70.8V99h-28.2V14.5h14.1V0.4h42.2v14.1h14.1V99h-28.2V70.8H277.7z M277.7,14.5v42.2h14.1V14.5H277.7z M351.5,0.4h56.3v14.1
		h-42.2v70.4h42.2V99h-56.3V84.9h-14.1V14.5h14.1V0.4z M453.4,70.8V99h-28.2V14.5h14.1V0.4h42.2v14.1h14.1V99h-28.2V70.8H453.4z
		 M453.4,14.5v42.2h14.1V14.5H453.4z M555.4,84.9V14.5h-14.1v70.4H555.4z M569.4,0.4v14.1h14.1v70.4h-14.1V99h-56.3V0.4H569.4z
		 M629.2,70.8V99H601V14.5h14.1V0.4h42.2v14.1h14.1V99h-28.2V70.8H629.2z M629.2,14.5v42.2h14.1V14.5H629.2z M717,28.6h14.1V14.5
		H717V28.6z M731.1,42.7H717v42.2h14.1V42.7z M745.2,0.4v14.1h14.1v14.1h-14.1v14.1h14.1v42.2h-14.1V99h-56.3V0.4H745.2z M819,56.8
		V14.5h-14.1v42.2H819z M847.1,84.9V99H819V70.8h-14.1V99h-28.2V0.4H833v14.1h14.1v42.2H833v28.2H847.1z M892.8,70.8V99h-28.2V14.5
		h14.1V0.4h42.2v14.1H935V99h-28.2V70.8H892.8z M892.8,14.5v42.2h14.1V14.5H892.8z M1022.9,42.7h-14.1v14.1h-14.1v14.1h-14.1v14.1
		h42.2V99h-70.4V56.8h14.1V42.7h14.1V28.6h14.1V14.5h-42.2V0.4h70.4V42.7z"/>
</g>
</svg>
